<svg width="1886" height="91" viewBox="0 0 1886 91" fill="none" xmlns="http://www.w3.org/2000/svg">
<path d="M34.68 90.24C29.8 90.24 25.24 89.84 21 89.04C16.76 88.16 13.04 86.68 9.84 84.6C6.72 82.44 4.28 79.48 2.52 75.72C0.84 71.88 0 67 0 61.08V0.840003H17.76V60.96C17.76 64.24 18.4 66.84 19.68 68.76C21.04 70.68 22.96 72.08 25.44 72.96C28 73.84 31.08 74.28 34.68 74.28C38.2 74.28 41.2 73.84 43.68 72.96C46.24 72.08 48.16 70.68 49.44 68.76C50.8 66.84 51.48 64.24 51.48 60.96V0.840003H69.36V61.08C69.36 67 68.48 71.88 66.72 75.72C64.96 79.48 62.52 82.44 59.4 84.6C56.28 86.68 52.6 88.16 48.36 89.04C44.2 89.84 39.64 90.24 34.68 90.24Z" fill="#2137FF" fill-opacity="0.1"/>
<path d="M83.4656 89.64V0.840003H101.226V89.64H83.4656Z" fill="#2137FF" fill-opacity="0.1"/>
<path d="M181.047 90.24C176.167 90.24 171.607 89.84 167.367 89.04C163.127 88.16 159.407 86.68 156.207 84.6C153.087 82.44 150.647 79.48 148.887 75.72C147.207 71.88 146.367 67 146.367 61.08V0.840003H164.127V60.96C164.127 64.24 164.767 66.84 166.047 68.76C167.407 70.68 169.327 72.08 171.807 72.96C174.367 73.84 177.447 74.28 181.047 74.28C184.567 74.28 187.567 73.84 190.047 72.96C192.607 72.08 194.527 70.68 195.807 68.76C197.167 66.84 197.847 64.24 197.847 60.96V0.840003H215.727V61.08C215.727 67 214.847 71.88 213.087 75.72C211.327 79.48 208.887 82.44 205.767 84.6C202.647 86.68 198.967 88.16 194.727 89.04C190.567 89.84 186.007 90.24 181.047 90.24Z" fill="#2137FF" fill-opacity="0.1"/>
<path d="M278.461 89.64L223.021 0.840003H242.701L298.141 89.64H278.461ZM223.381 89.64L253.141 41.16L262.261 56.16L243.061 89.64H223.381ZM268.261 50.4L259.261 35.4L278.941 0.840003H298.501L268.261 50.4Z" fill="#2137FF" fill-opacity="0.1"/>
<path d="M339.169 89.64V0.840003H376.609C379.489 0.840003 382.409 1.2 385.369 1.92C388.409 2.56 391.169 3.92 393.649 6C396.209 8 398.249 11.04 399.769 15.12C401.369 19.2 402.169 24.6 402.169 31.32C402.169 38.04 401.369 43.48 399.769 47.64C398.249 51.8 396.249 54.96 393.769 57.12C391.289 59.28 388.609 60.72 385.729 61.44C382.849 62.16 380.049 62.52 377.329 62.52C375.889 62.52 374.209 62.48 372.289 62.4C370.369 62.24 368.409 62.04 366.409 61.8C364.489 61.56 362.689 61.36 361.009 61.2C359.329 60.96 357.969 60.76 356.929 60.6V89.64H339.169ZM356.929 46.56H374.569C376.649 46.56 378.409 46.08 379.849 45.12C381.369 44.08 382.489 42.48 383.209 40.32C383.929 38.08 384.289 35.12 384.289 31.44C384.289 27.84 383.889 25 383.089 22.92C382.369 20.76 381.289 19.2 379.849 18.24C378.489 17.28 376.849 16.8 374.929 16.8H356.929V46.56Z" fill="#2137FF" fill-opacity="0.1"/>
<path d="M447.18 90.24C442.3 90.24 437.74 89.84 433.5 89.04C429.26 88.16 425.54 86.68 422.34 84.6C419.22 82.44 416.78 79.48 415.02 75.72C413.34 71.88 412.5 67 412.5 61.08V0.840003H430.26V60.96C430.26 64.24 430.9 66.84 432.18 68.76C433.54 70.68 435.46 72.08 437.94 72.96C440.5 73.84 443.58 74.28 447.18 74.28C450.7 74.28 453.7 73.84 456.18 72.96C458.74 72.08 460.66 70.68 461.94 68.76C463.3 66.84 463.98 64.24 463.98 60.96V0.840003H481.86V61.08C481.86 67 480.98 71.88 479.22 75.72C477.46 79.48 475.02 82.44 471.9 84.6C468.78 86.68 465.1 88.16 460.86 89.04C456.7 89.84 452.14 90.24 447.18 90.24Z" fill="#2137FF" fill-opacity="0.1"/>
<path d="M495.966 89.64V0.840003H530.886C539.686 0.840003 546.086 2.88 550.086 6.96C554.166 10.96 556.206 16.68 556.206 24.12C556.206 27.64 555.686 30.76 554.646 33.48C553.686 36.12 552.286 38.32 550.446 40.08C548.606 41.76 546.406 42.92 543.846 43.56C545.766 44.04 547.606 44.8 549.366 45.84C551.206 46.88 552.846 48.28 554.286 50.04C555.806 51.8 556.966 53.96 557.766 56.52C558.646 59 559.086 61.88 559.086 65.16C559.086 71.16 558.046 75.96 555.966 79.56C553.966 83.16 550.966 85.76 546.966 87.36C543.046 88.88 538.206 89.64 532.446 89.64H495.966ZM513.726 73.68H531.966C534.046 73.68 535.846 73.28 537.366 72.48C538.886 71.68 540.046 70.44 540.846 68.76C541.726 67.08 542.166 64.84 542.166 62.04C542.166 59.72 541.726 57.76 540.846 56.16C539.966 54.56 538.766 53.32 537.246 52.44C535.726 51.56 533.966 51.12 531.966 51.12H513.726V73.68ZM513.726 37.44H531.006C533.566 37.44 535.566 36.52 537.006 34.68C538.526 32.76 539.286 30.28 539.286 27.24C539.366 23.32 538.566 20.6 536.886 19.08C535.206 17.56 533.166 16.8 530.766 16.8H513.726V37.44Z" fill="#2137FF" fill-opacity="0.1"/>
<path d="M592.2 89.64C587.64 89.64 583.76 88.96 580.56 87.6C577.44 86.16 575.08 83.92 573.48 80.88C571.96 77.76 571.2 73.68 571.2 68.64V0.840003H588.96V65.76C588.96 67.68 589.28 69.24 589.92 70.44C590.64 71.64 591.6 72.48 592.8 72.96C594 73.36 595.36 73.56 596.88 73.56H624.96V89.64H592.2Z" fill="#2137FF" fill-opacity="0.1"/>
<path d="M635.419 89.64V0.840003H653.179V89.64H635.419Z" fill="#2137FF" fill-opacity="0.1"/>
<path d="M695.343 90.36C693.023 90.36 690.623 90.28 688.143 90.12C685.743 90.04 683.263 89.88 680.703 89.64C678.223 89.32 675.863 89 673.623 88.68C671.383 88.28 669.343 87.84 667.503 87.36V73.32C669.903 73.56 672.623 73.76 675.663 73.92C678.703 74.08 681.863 74.2 685.143 74.28C688.423 74.36 691.543 74.4 694.503 74.4C697.543 74.4 700.143 74.16 702.303 73.68C704.543 73.12 706.263 72.2 707.463 70.92C708.663 69.56 709.263 67.72 709.263 65.4V62.16C709.263 59.52 708.463 57.52 706.863 56.16C705.343 54.72 703.143 54 700.263 54H692.703C684.223 54 677.703 52.16 673.143 48.48C668.663 44.72 666.423 38.36 666.423 29.4V25.08C666.423 16.44 668.903 10.12 673.863 6.12C678.823 2.12 685.903 0.119998 695.103 0.119998C698.383 0.119998 701.623 0.279999 704.823 0.599999C708.103 0.92 711.223 1.32 714.183 1.8C717.223 2.2 719.823 2.64 721.983 3.12V17.16C718.303 16.92 714.183 16.68 709.623 16.44C705.143 16.2 700.983 16.08 697.143 16.08C694.423 16.08 691.983 16.36 689.823 16.92C687.743 17.4 686.143 18.36 685.023 19.8C683.903 21.24 683.343 23.28 683.343 25.92V28.32C683.343 31.44 684.223 33.68 685.983 35.04C687.743 36.4 690.343 37.08 693.783 37.08H702.543C707.903 37.08 712.303 38.08 715.743 40.08C719.263 42 721.863 44.68 723.543 48.12C725.303 51.56 726.183 55.48 726.183 59.88V64.92C726.183 71.88 724.863 77.2 722.223 80.88C719.663 84.56 716.063 87.08 711.423 88.44C706.863 89.72 701.503 90.36 695.343 90.36Z" fill="#2137FF" fill-opacity="0.1"/>
<path d="M739.247 89.64V0.840003H757.007V37.8H790.487V0.840003H808.367V89.64H790.487V53.76H757.007V89.64H739.247Z" fill="#2137FF" fill-opacity="0.1"/>
<path d="M823.622 89.64V0.840003H841.382V89.64H823.622Z" fill="#2137FF" fill-opacity="0.1"/>
<path d="M857.386 89.64V0.840003H871.666L908.866 59.4V0.840003H926.626V89.64H912.346L875.266 31.08V89.64H857.386Z" fill="#2137FF" fill-opacity="0.1"/>
<path d="M966.478 90.24C960.878 90.24 956.278 89.2 952.678 87.12C949.158 84.96 946.398 81.92 944.398 78C942.398 74 940.998 69.24 940.198 63.72C939.398 58.2 938.998 52.04 938.998 45.24C938.998 38.12 939.438 31.76 940.318 26.16C941.278 20.56 942.918 15.84 945.238 12C947.638 8.08 950.958 5.12 955.198 3.12C959.518 1.04 965.038 0 971.758 0C975.838 0 979.558 0.16 982.918 0.480001C986.358 0.800002 989.598 1.28 992.638 1.92C995.678 2.48 998.718 3.16 1001.76 3.96V17.64C1000.08 17.4 997.838 17.16 995.038 16.92C992.238 16.68 989.118 16.48 985.678 16.32C982.238 16.08 978.678 15.96 974.998 15.96C969.958 15.96 966.118 16.88 963.478 18.72C960.918 20.48 959.158 23.52 958.198 27.84C957.238 32.08 956.758 37.92 956.758 45.36C956.758 51.12 956.998 55.84 957.478 59.52C958.038 63.2 958.918 66.12 960.118 68.28C961.318 70.36 962.878 71.84 964.798 72.72C966.798 73.52 969.238 73.92 972.118 73.92C975.398 73.92 978.518 73.64 981.478 73.08C984.518 72.52 986.958 71.96 988.798 71.4V54.12H972.838V40.08C974.518 39.84 976.518 39.64 978.838 39.48C981.158 39.32 983.558 39.2 986.038 39.12C988.598 38.96 991.038 38.88 993.358 38.88C995.918 38.88 998.198 38.92 1000.2 39C1002.28 39 1004.16 39.08 1005.84 39.24V89.64H992.518L990.118 83.64C987.798 85 984.518 86.44 980.278 87.96C976.038 89.48 971.438 90.24 966.478 90.24Z" fill="#2137FF" fill-opacity="0.1"/>
<path d="M1052.14 89.64V21.12C1052.14 17.2 1052.74 13.92 1053.94 11.28C1055.14 8.64 1056.74 6.56 1058.74 5.04C1060.74 3.52 1062.94 2.44 1065.34 1.8C1067.74 1.16 1070.1 0.840003 1072.42 0.840003C1075.3 0.840003 1078.86 0.880003 1083.1 0.960002C1087.42 0.960002 1091.98 1.08 1096.78 1.32C1101.66 1.56 1106.34 1.92 1110.82 2.4V17.28H1077.34C1074.86 17.28 1072.98 17.96 1071.7 19.32C1070.5 20.6 1069.9 22.32 1069.9 24.48V39.6L1105.06 40.56V54.6L1069.9 55.56V89.64H1052.14Z" fill="#2137FF" fill-opacity="0.1"/>
<path d="M1142.53 90.24C1140.61 90.24 1138.41 90.04 1135.93 89.64C1133.45 89.32 1131.05 88.52 1128.73 87.24C1126.49 85.96 1124.61 84.04 1123.09 81.48C1121.65 78.84 1120.93 75.24 1120.93 70.68V21.12C1120.93 17.2 1121.53 13.92 1122.73 11.28C1123.93 8.64 1125.53 6.56 1127.53 5.04C1129.53 3.52 1131.73 2.44 1134.13 1.8C1136.53 1.16 1138.89 0.840003 1141.21 0.840003C1147.21 0.840003 1152.49 0.920002 1157.05 1.08C1161.69 1.24 1165.85 1.44 1169.53 1.68C1173.21 1.84 1176.57 2.08 1179.61 2.4V17.28H1146.49C1144.01 17.28 1142.09 17.88 1140.73 19.08C1139.37 20.28 1138.69 22.12 1138.69 24.6V37.44L1173.85 38.4V52.44L1138.69 53.4V65.64C1138.69 67.72 1139.01 69.36 1139.65 70.56C1140.37 71.68 1141.29 72.48 1142.41 72.96C1143.61 73.36 1144.85 73.56 1146.13 73.56H1179.61V88.44C1176.09 88.84 1172.17 89.16 1167.85 89.4C1163.61 89.64 1159.29 89.84 1154.89 90C1150.57 90.16 1146.45 90.24 1142.53 90.24Z" fill="#2137FF" fill-opacity="0.1"/>
<path d="M1223.47 89.64V0.840003H1261.03C1267.03 0.840003 1272.03 1.92 1276.03 4.08C1280.03 6.16 1283.19 9.2 1285.51 13.2C1287.91 17.12 1289.59 21.8 1290.55 27.24C1291.51 32.68 1291.99 38.68 1291.99 45.24C1291.99 55.24 1290.83 63.52 1288.51 70.08C1286.27 76.64 1282.87 81.56 1278.31 84.84C1273.75 88.04 1267.99 89.64 1261.03 89.64H1223.47ZM1241.23 73.68H1259.23C1262.91 73.68 1265.83 72.64 1267.99 70.56C1270.15 68.4 1271.71 65.2 1272.67 60.96C1273.71 56.72 1274.23 51.48 1274.23 45.24C1274.23 39.48 1273.91 34.76 1273.27 31.08C1272.63 27.32 1271.67 24.4 1270.39 22.32C1269.19 20.24 1267.63 18.8 1265.71 18C1263.87 17.2 1261.71 16.8 1259.23 16.8H1241.23V73.68Z" fill="#2137FF" fill-opacity="0.1"/>
<path d="M1326.63 90.24C1324.71 90.24 1322.51 90.04 1320.03 89.64C1317.55 89.32 1315.15 88.52 1312.83 87.24C1310.59 85.96 1308.71 84.04 1307.19 81.48C1305.75 78.84 1305.03 75.24 1305.03 70.68V21.12C1305.03 17.2 1305.63 13.92 1306.83 11.28C1308.03 8.64 1309.63 6.56 1311.63 5.04C1313.63 3.52 1315.83 2.44 1318.23 1.8C1320.63 1.16 1322.99 0.840003 1325.31 0.840003C1331.31 0.840003 1336.59 0.920002 1341.15 1.08C1345.79 1.24 1349.95 1.44 1353.63 1.68C1357.31 1.84 1360.67 2.08 1363.71 2.4V17.28H1330.59C1328.11 17.28 1326.19 17.88 1324.83 19.08C1323.47 20.28 1322.79 22.12 1322.79 24.6V37.44L1357.95 38.4V52.44L1322.79 53.4V65.64C1322.79 67.72 1323.11 69.36 1323.75 70.56C1324.47 71.68 1325.39 72.48 1326.51 72.96C1327.71 73.36 1328.95 73.56 1330.23 73.56H1363.71V88.44C1360.19 88.84 1356.27 89.16 1351.95 89.4C1347.71 89.64 1343.39 89.84 1338.99 90C1334.67 90.16 1330.55 90.24 1326.63 90.24Z" fill="#2137FF" fill-opacity="0.1"/>
<path d="M1398.83 89.64L1370.99 0.840003H1389.35L1410.11 70.44L1430.87 0.840003H1449.11L1421.27 89.64H1398.83Z" fill="#2137FF" fill-opacity="0.1"/>
<path d="M1477.33 90.24C1475.41 90.24 1473.21 90.04 1470.73 89.64C1468.25 89.32 1465.85 88.52 1463.53 87.24C1461.29 85.96 1459.41 84.04 1457.89 81.48C1456.45 78.84 1455.73 75.24 1455.73 70.68V21.12C1455.73 17.2 1456.33 13.92 1457.53 11.28C1458.73 8.64 1460.33 6.56 1462.33 5.04C1464.33 3.52 1466.53 2.44 1468.93 1.8C1471.33 1.16 1473.69 0.840003 1476.01 0.840003C1482.01 0.840003 1487.29 0.920002 1491.85 1.08C1496.49 1.24 1500.65 1.44 1504.33 1.68C1508.01 1.84 1511.37 2.08 1514.41 2.4V17.28H1481.29C1478.81 17.28 1476.89 17.88 1475.53 19.08C1474.17 20.28 1473.49 22.12 1473.49 24.6V37.44L1508.65 38.4V52.44L1473.49 53.4V65.64C1473.49 67.72 1473.81 69.36 1474.45 70.56C1475.17 71.68 1476.09 72.48 1477.21 72.96C1478.41 73.36 1479.65 73.56 1480.93 73.56H1514.41V88.44C1510.89 88.84 1506.97 89.16 1502.65 89.4C1498.41 89.64 1494.09 89.84 1489.69 90C1485.37 90.16 1481.25 90.24 1477.33 90.24Z" fill="#2137FF" fill-opacity="0.1"/>
<path d="M1548.33 89.64C1543.77 89.64 1539.89 88.96 1536.69 87.6C1533.57 86.16 1531.21 83.92 1529.61 80.88C1528.09 77.76 1527.33 73.68 1527.33 68.64V0.840003H1545.09V65.76C1545.09 67.68 1545.41 69.24 1546.05 70.44C1546.77 71.64 1547.73 72.48 1548.93 72.96C1550.13 73.36 1551.49 73.56 1553.01 73.56H1581.09V89.64H1548.33Z" fill="#2137FF" fill-opacity="0.1"/>
<path d="M1625.29 90.36C1619.21 90.36 1613.89 89.8 1609.33 88.68C1604.77 87.48 1600.93 85.32 1597.81 82.2C1594.77 79 1592.49 74.44 1590.97 68.52C1589.45 62.6 1588.69 54.88 1588.69 45.36C1588.69 35.84 1589.45 28.12 1590.97 22.2C1592.57 16.2 1594.89 11.6 1597.93 8.4C1600.97 5.2 1604.77 3 1609.33 1.8C1613.89 0.599999 1619.21 0 1625.29 0C1631.37 0 1636.69 0.599999 1641.25 1.8C1645.81 3 1649.61 5.2 1652.65 8.4C1655.69 11.6 1657.97 16.2 1659.49 22.2C1661.01 28.12 1661.77 35.84 1661.77 45.36C1661.77 54.88 1661.01 62.6 1659.49 68.52C1657.97 74.44 1655.69 79 1652.65 82.2C1649.61 85.32 1645.81 87.48 1641.25 88.68C1636.69 89.8 1631.37 90.36 1625.29 90.36ZM1625.29 74.4C1628.89 74.4 1631.89 74 1634.29 73.2C1636.69 72.4 1638.57 71 1639.93 69C1641.37 66.92 1642.41 64 1643.05 60.24C1643.69 56.4 1644.01 51.44 1644.01 45.36C1644.01 38.96 1643.69 33.84 1643.05 30C1642.41 26.16 1641.37 23.24 1639.93 21.24C1638.57 19.16 1636.69 17.76 1634.29 17.04C1631.89 16.32 1628.89 15.96 1625.29 15.96C1621.85 15.96 1618.93 16.32 1616.53 17.04C1614.13 17.76 1612.17 19.16 1610.65 21.24C1609.21 23.24 1608.13 26.16 1607.41 30C1606.77 33.84 1606.45 38.96 1606.45 45.36C1606.45 51.44 1606.73 56.4 1607.29 60.24C1607.93 64 1608.97 66.92 1610.41 69C1611.85 71 1613.77 72.4 1616.17 73.2C1618.65 74 1621.69 74.4 1625.29 74.4Z" fill="#2137FF" fill-opacity="0.1"/>
<path d="M1674.87 89.64V0.840003H1712.31C1715.19 0.840003 1718.11 1.2 1721.07 1.92C1724.11 2.56 1726.87 3.92 1729.35 6C1731.91 8 1733.95 11.04 1735.47 15.12C1737.07 19.2 1737.87 24.6 1737.87 31.32C1737.87 38.04 1737.07 43.48 1735.47 47.64C1733.95 51.8 1731.95 54.96 1729.47 57.12C1726.99 59.28 1724.31 60.72 1721.43 61.44C1718.55 62.16 1715.75 62.52 1713.03 62.52C1711.59 62.52 1709.91 62.48 1707.99 62.4C1706.07 62.24 1704.11 62.04 1702.11 61.8C1700.19 61.56 1698.39 61.36 1696.71 61.2C1695.03 60.96 1693.67 60.76 1692.63 60.6V89.64H1674.87ZM1692.63 46.56H1710.27C1712.35 46.56 1714.11 46.08 1715.55 45.12C1717.07 44.08 1718.19 42.48 1718.91 40.32C1719.63 38.08 1719.99 35.12 1719.99 31.44C1719.99 27.84 1719.59 25 1718.79 22.92C1718.07 20.76 1716.99 19.2 1715.55 18.24C1714.19 17.28 1712.55 16.8 1710.63 16.8H1692.63V46.56Z" fill="#2137FF" fill-opacity="0.1"/>
<path d="M1771 90.24C1769.08 90.24 1766.88 90.04 1764.4 89.64C1761.92 89.32 1759.52 88.52 1757.2 87.24C1754.96 85.96 1753.08 84.04 1751.56 81.48C1750.12 78.84 1749.4 75.24 1749.4 70.68V21.12C1749.4 17.2 1750 13.92 1751.2 11.28C1752.4 8.64 1754 6.56 1756 5.04C1758 3.52 1760.2 2.44 1762.6 1.8C1765 1.16 1767.36 0.840003 1769.68 0.840003C1775.68 0.840003 1780.96 0.920002 1785.52 1.08C1790.16 1.24 1794.32 1.44 1798 1.68C1801.68 1.84 1805.04 2.08 1808.08 2.4V17.28H1774.96C1772.48 17.28 1770.56 17.88 1769.2 19.08C1767.84 20.28 1767.16 22.12 1767.16 24.6V37.44L1802.32 38.4V52.44L1767.16 53.4V65.64C1767.16 67.72 1767.48 69.36 1768.12 70.56C1768.84 71.68 1769.76 72.48 1770.88 72.96C1772.08 73.36 1773.32 73.56 1774.6 73.56H1808.08V88.44C1804.56 88.84 1800.64 89.16 1796.32 89.4C1792.08 89.64 1787.76 89.84 1783.36 90C1779.04 90.16 1774.92 90.24 1771 90.24Z" fill="#2137FF" fill-opacity="0.1"/>
<path d="M1821 89.64V0.840003H1857.72C1861.24 0.840003 1864.52 1.28 1867.56 2.16C1870.6 2.96 1873.28 4.4 1875.6 6.48C1877.92 8.56 1879.72 11.44 1881 15.12C1882.36 18.8 1883.04 23.52 1883.04 29.28C1883.04 33.36 1882.64 36.84 1881.84 39.72C1881.04 42.6 1879.96 44.96 1878.6 46.8C1877.32 48.64 1875.84 50.12 1874.16 51.24C1872.48 52.36 1870.76 53.28 1869 54L1885.56 89.64H1867.44L1853.16 56.76C1852.2 56.76 1851.08 56.76 1849.8 56.76C1848.6 56.68 1847.36 56.64 1846.08 56.64C1844.8 56.64 1843.52 56.64 1842.24 56.64C1840.96 56.64 1839.8 56.6 1838.76 56.52V89.64H1821ZM1838.76 42.48H1854.6C1856.2 42.48 1857.64 42.28 1858.92 41.88C1860.2 41.48 1861.32 40.8 1862.28 39.84C1863.24 38.8 1863.96 37.44 1864.44 35.76C1865 34.08 1865.28 31.92 1865.28 29.28C1865.28 26.8 1865 24.76 1864.44 23.16C1863.96 21.48 1863.24 20.2 1862.28 19.32C1861.32 18.36 1860.2 17.72 1858.92 17.4C1857.64 17 1856.2 16.8 1854.6 16.8H1838.76V42.48Z" fill="#2137FF" fill-opacity="0.1"/>
</svg>
