<svg width="1837" height="101" viewBox="0 0 1837 101" fill="none" xmlns="http://www.w3.org/2000/svg">
<path d="M0.92 100.32L29.48 0.599995H47.24L18.44 100.32H0.92ZM90.1747 89.28C66.8947 89.28 55.1347 79.2 55.1347 59.16V7.43999H77.8147V58.32C77.8147 68.64 82.0147 72.84 90.8947 72.84C99.7747 72.84 103.495 68.64 103.495 58.2V7.43999H123.655V59.04C123.655 79.08 113.095 89.28 90.1747 89.28ZM132.723 87.96L156.603 46.44L134.523 7.31999H159.363L173.283 32.88H173.763L186.723 7.31999H208.923L187.083 45.84L210.603 87.96H185.763L170.643 60.48H170.163L154.923 87.96H132.723ZM266.295 87.96L247.095 7.31999H269.775L280.335 58.08H280.815L293.655 7.31999H311.895L324.615 58.08H324.975L336.255 7.31999H355.935L336.615 87.96H313.935L301.935 38.28H301.575L289.095 87.96H266.295ZM366.164 87.96V7.31999H421.844V23.52H388.484V38.88H414.524V54.72H388.484V71.76H422.924V87.96H366.164ZM457.971 40.8H466.131C472.371 40.8 476.811 38.16 476.811 30.96C476.811 24.24 473.211 21.72 466.371 21.72H457.971V40.8ZM457.971 73.32H467.571C474.531 73.32 478.731 70.08 478.731 63C478.731 56.04 474.651 53.04 466.971 53.04H457.971V73.32ZM435.891 87.96V7.31999H470.811C488.811 7.31999 498.411 14.16 498.411 27.84C498.411 37.08 494.211 42.96 484.971 45.6V45.96C495.051 47.76 502.011 53.16 502.011 65.04C502.011 78.12 493.131 87.96 472.251 87.96H435.891ZM510.466 61.44V45.36H545.866V61.44H510.466ZM579.974 46.68H588.254C596.534 46.68 599.414 42.84 599.414 34.8C599.414 25.8 596.054 22.8 588.734 22.8H579.974V46.68ZM557.414 87.96V7.31999H590.894C612.374 7.31999 622.814 16.68 622.814 33.6C622.814 51.84 611.774 61.2 591.494 61.2H579.974V87.96H557.414ZM668.261 89.28C644.981 89.28 633.221 79.2 633.221 59.16V7.43999H655.901V58.32C655.901 68.64 660.101 72.84 668.981 72.84C677.861 72.84 681.581 68.64 681.581 58.2V7.43999H701.741V59.04C701.741 79.08 691.181 89.28 668.261 89.28ZM738.635 40.8H746.795C753.035 40.8 757.475 38.16 757.475 30.96C757.475 24.24 753.875 21.72 747.035 21.72H738.635V40.8ZM738.635 73.32H748.235C755.195 73.32 759.395 70.08 759.395 63C759.395 56.04 755.315 53.04 747.635 53.04H738.635V73.32ZM716.555 87.96V7.31999H751.475C769.475 7.31999 779.075 14.16 779.075 27.84C779.075 37.08 774.875 42.96 765.635 45.6V45.96C775.715 47.76 782.675 53.16 782.675 65.04C782.675 78.12 773.795 87.96 752.915 87.96H716.555ZM794.25 87.96V7.31999H816.81V71.76H847.41V87.96H794.25ZM859.535 87.96V7.31999H882.215V87.96H859.535ZM920.884 89.28C909.604 89.28 900.124 87.6 894.364 84.48V68.04C901.564 70.68 908.884 72.6 918.244 72.6C927.244 72.6 930.724 69.84 930.724 65.04C930.724 60.36 928.684 58.92 920.884 57.36L914.884 56.16C902.044 53.76 894.244 48.12 894.244 31.2C894.244 15.96 903.724 6 924.124 6C936.964 6 943.204 7.91999 948.004 10.2V26.4C942.364 24.48 935.404 22.56 926.284 22.56C918.964 22.56 915.244 24.84 915.244 29.52C915.244 33.72 917.644 35.4 924.724 36.84L930.724 37.92C945.004 40.68 952.804 46.32 952.804 62.64C952.804 79.92 941.764 89.28 920.884 89.28ZM964.407 87.96V7.31999H986.967V38.4H1012.29V7.31999H1034.97V87.96H1012.29V54.6H986.967V87.96H964.407ZM1050.67 87.96V7.31999H1073.35V87.96H1050.67ZM1088.98 87.96V7.31999H1113.34L1139.38 52.44H1139.74V7.31999H1158.94V87.96H1137.46L1108.66 37.68H1108.18V87.96H1088.98ZM1212.21 89.16C1186.65 89.16 1170.93 78.6 1170.93 48.96V46.32C1170.93 15.72 1190.49 6 1212.81 6C1223.97 6 1232.61 8.16 1237.05 10.44V27C1232.61 25.44 1226.01 23.28 1215.93 23.28C1198.77 23.28 1194.21 32.16 1194.21 45.72V49.32C1194.21 64.32 1197.45 73.08 1211.49 73.08C1214.85 73.08 1218.21 72.48 1220.13 71.76V59.16H1208.61V44.4H1241.13V84C1235.13 86.52 1223.73 89.16 1212.21 89.16ZM1285.97 87.96V7.31999H1341.41V23.52H1308.53V41.76H1334.21V57.6H1308.53V87.96H1285.97ZM1353.35 87.96V7.31999H1409.03V23.52H1375.67V38.88H1401.71V54.72H1375.67V71.76H1410.11V87.96H1353.35ZM1417.38 61.44V45.36H1452.78V61.44H1417.38ZM1486.89 72H1494.93C1506.21 72 1511.73 66.36 1511.73 49.44V45.36C1511.73 28.2 1505.37 23.28 1494.33 23.28H1486.89V72ZM1464.33 87.96V7.31999H1495.29C1520.49 7.31999 1535.49 18 1535.49 45.72V48.48C1535.49 75.72 1520.49 87.96 1495.41 87.96H1464.33ZM1547.65 87.96V7.31999H1603.33V23.52H1569.97V38.88H1596.01V54.72H1569.97V71.76H1604.41V87.96H1547.65ZM1638.51 87.96L1611.03 7.31999H1634.07L1651.11 61.8H1651.71L1668.63 7.31999H1689.27L1661.79 87.96H1638.51ZM1764.78 89.28C1741.5 89.28 1729.74 79.2 1729.74 59.16V7.43999H1752.42V58.32C1752.42 68.64 1756.62 72.84 1765.5 72.84C1774.38 72.84 1778.1 68.64 1778.1 58.2V7.43999H1798.26V59.04C1798.26 79.08 1787.7 89.28 1764.78 89.28ZM1813.56 87.96V7.31999H1836.24V87.96H1813.56Z" fill="#999999" fill-opacity="0.1"/>
</svg>
