<svg width="1766" height="91" viewBox="0 0 1766 91" fill="none" xmlns="http://www.w3.org/2000/svg">
<path d="M35.098 90.6C30.218 90.6 25.658 90.2 21.418 89.4C17.178 88.52 13.458 87.04 10.258 84.96C7.13797 82.8 4.69797 79.84 2.93797 76.08C1.25797 72.24 0.417969 67.36 0.417969 61.44V1.19999H18.178V61.32C18.178 64.6 18.818 67.2 20.098 69.12C21.458 71.04 23.378 72.44 25.858 73.32C28.418 74.2 31.498 74.64 35.098 74.64C38.618 74.64 41.618 74.2 44.098 73.32C46.658 72.44 48.578 71.04 49.858 69.12C51.218 67.2 51.898 64.6 51.898 61.32V1.19999H69.778V61.44C69.778 67.36 68.898 72.24 67.138 76.08C65.378 79.84 62.938 82.8 59.818 84.96C56.698 87.04 53.018 88.52 48.778 89.4C44.618 90.2 40.058 90.6 35.098 90.6Z" fill="#2137FF" fill-opacity="0.1"/>
<path d="M83.8836 90V1.19999H101.644V90H83.8836Z" fill="#2137FF" fill-opacity="0.1"/>
<path d="M181.465 90.6C176.585 90.6 172.025 90.2 167.785 89.4C163.545 88.52 159.825 87.04 156.625 84.96C153.505 82.8 151.065 79.84 149.305 76.08C147.625 72.24 146.785 67.36 146.785 61.44V1.19999H164.545V61.32C164.545 64.6 165.185 67.2 166.465 69.12C167.825 71.04 169.745 72.44 172.225 73.32C174.785 74.2 177.865 74.64 181.465 74.64C184.985 74.64 187.985 74.2 190.465 73.32C193.025 72.44 194.945 71.04 196.225 69.12C197.585 67.2 198.265 64.6 198.265 61.32V1.19999H216.145V61.44C216.145 67.36 215.265 72.24 213.505 76.08C211.745 79.84 209.305 82.8 206.185 84.96C203.065 87.04 199.385 88.52 195.145 89.4C190.985 90.2 186.425 90.6 181.465 90.6Z" fill="#2137FF" fill-opacity="0.1"/>
<path d="M278.879 90L223.439 1.19999H243.119L298.559 90H278.879ZM223.799 90L253.559 41.52L262.679 56.52L243.479 90H223.799ZM268.679 50.76L259.679 35.76L279.359 1.19999H298.919L268.679 50.76Z" fill="#2137FF" fill-opacity="0.1"/>
<path d="M355.187 90L333.947 1.19999H352.307L366.587 63.84L383.267 1.19999H399.587L416.147 63.84L430.427 1.19999H448.787L427.547 90H409.427L391.427 27.36L373.307 90H355.187Z" fill="#2137FF" fill-opacity="0.1"/>
<path d="M477.085 90.6C475.165 90.6 472.965 90.4 470.485 90C468.005 89.68 465.605 88.88 463.285 87.6C461.045 86.32 459.165 84.4 457.645 81.84C456.205 79.2 455.485 75.6 455.485 71.04V21.48C455.485 17.56 456.085 14.28 457.285 11.64C458.485 8.99998 460.085 6.91998 462.085 5.39998C464.085 3.87999 466.285 2.79998 468.685 2.15998C471.085 1.51999 473.445 1.19999 475.765 1.19999C481.765 1.19999 487.045 1.27999 491.605 1.43999C496.245 1.59998 500.405 1.79998 504.085 2.03999C507.765 2.19999 511.125 2.43999 514.165 2.75998V17.64H481.045C478.565 17.64 476.645 18.24 475.285 19.44C473.925 20.64 473.245 22.48 473.245 24.96V37.8L508.405 38.76V52.8L473.245 53.76V66C473.245 68.08 473.565 69.72 474.205 70.92C474.925 72.04 475.845 72.84 476.965 73.32C478.165 73.72 479.405 73.92 480.685 73.92H514.165V88.8C510.645 89.2 506.725 89.52 502.405 89.76C498.165 90 493.845 90.2 489.445 90.36C485.125 90.52 481.005 90.6 477.085 90.6Z" fill="#2137FF" fill-opacity="0.1"/>
<path d="M527.087 90V1.19999H562.007C570.807 1.19999 577.207 3.23999 581.207 7.31999C585.287 11.32 587.327 17.04 587.327 24.48C587.327 28 586.807 31.12 585.767 33.84C584.807 36.48 583.407 38.68 581.567 40.44C579.727 42.12 577.527 43.28 574.967 43.92C576.887 44.4 578.727 45.16 580.487 46.2C582.327 47.24 583.967 48.64 585.407 50.4C586.927 52.16 588.087 54.32 588.887 56.88C589.767 59.36 590.207 62.24 590.207 65.52C590.207 71.52 589.167 76.32 587.087 79.92C585.087 83.52 582.087 86.12 578.087 87.72C574.167 89.24 569.327 90 563.567 90H527.087ZM544.847 74.04H563.087C565.167 74.04 566.967 73.64 568.487 72.84C570.007 72.04 571.167 70.8 571.967 69.12C572.847 67.44 573.287 65.2 573.287 62.4C573.287 60.08 572.847 58.12 571.967 56.52C571.087 54.92 569.887 53.68 568.367 52.8C566.847 51.92 565.087 51.48 563.087 51.48H544.847V74.04ZM544.847 37.8H562.127C564.687 37.8 566.687 36.88 568.127 35.04C569.647 33.12 570.407 30.64 570.407 27.6C570.487 23.68 569.687 20.96 568.007 19.44C566.327 17.92 564.287 17.16 561.887 17.16H544.847V37.8Z" fill="#2137FF" fill-opacity="0.1"/>
<path d="M597.281 62.4V48H634.001V62.4H597.281Z" fill="#2137FF" fill-opacity="0.1"/>
<path d="M644.274 90V1.19999H681.714C684.594 1.19999 687.514 1.55999 690.474 2.27999C693.514 2.91999 696.274 4.27998 698.754 6.35999C701.314 8.35998 703.354 11.4 704.874 15.48C706.474 19.56 707.274 24.96 707.274 31.68C707.274 38.4 706.474 43.84 704.874 48C703.354 52.16 701.354 55.32 698.874 57.48C696.394 59.64 693.714 61.08 690.834 61.8C687.954 62.52 685.154 62.88 682.434 62.88C680.994 62.88 679.314 62.84 677.394 62.76C675.474 62.6 673.514 62.4 671.514 62.16C669.594 61.92 667.794 61.72 666.114 61.56C664.434 61.32 663.074 61.12 662.034 60.96V90H644.274ZM662.034 46.92H679.674C681.754 46.92 683.514 46.44 684.954 45.48C686.474 44.44 687.594 42.84 688.314 40.68C689.034 38.44 689.394 35.48 689.394 31.8C689.394 28.2 688.994 25.36 688.194 23.28C687.474 21.12 686.394 19.56 684.954 18.6C683.594 17.64 681.954 17.16 680.034 17.16H662.034V46.92Z" fill="#2137FF" fill-opacity="0.1"/>
<path d="M752.285 90.6C747.405 90.6 742.845 90.2 738.605 89.4C734.365 88.52 730.645 87.04 727.445 84.96C724.325 82.8 721.885 79.84 720.125 76.08C718.445 72.24 717.605 67.36 717.605 61.44V1.19999H735.365V61.32C735.365 64.6 736.005 67.2 737.285 69.12C738.645 71.04 740.565 72.44 743.045 73.32C745.605 74.2 748.685 74.64 752.285 74.64C755.805 74.64 758.805 74.2 761.285 73.32C763.845 72.44 765.765 71.04 767.045 69.12C768.405 67.2 769.085 64.6 769.085 61.32V1.19999H786.965V61.44C786.965 67.36 786.086 72.24 784.326 76.08C782.565 79.84 780.125 82.8 777.005 84.96C773.885 87.04 770.205 88.52 765.965 89.4C761.805 90.2 757.245 90.6 752.285 90.6Z" fill="#2137FF" fill-opacity="0.1"/>
<path d="M801.071 90V1.19999H835.991C844.791 1.19999 851.191 3.23999 855.191 7.31999C859.271 11.32 861.311 17.04 861.311 24.48C861.311 28 860.791 31.12 859.751 33.84C858.791 36.48 857.391 38.68 855.551 40.44C853.711 42.12 851.511 43.28 848.951 43.92C850.871 44.4 852.711 45.16 854.471 46.2C856.311 47.24 857.951 48.64 859.391 50.4C860.911 52.16 862.071 54.32 862.871 56.88C863.751 59.36 864.191 62.24 864.191 65.52C864.191 71.52 863.151 76.32 861.071 79.92C859.071 83.52 856.071 86.12 852.071 87.72C848.151 89.24 843.311 90 837.551 90H801.071ZM818.831 74.04H837.071C839.151 74.04 840.951 73.64 842.471 72.84C843.991 72.04 845.151 70.8 845.951 69.12C846.831 67.44 847.271 65.2 847.271 62.4C847.271 60.08 846.831 58.12 845.951 56.52C845.071 54.92 843.871 53.68 842.351 52.8C840.831 51.92 839.071 51.48 837.071 51.48H818.831V74.04ZM818.831 37.8H836.111C838.671 37.8 840.671 36.88 842.111 35.04C843.631 33.12 844.391 30.64 844.391 27.6C844.471 23.68 843.671 20.96 841.991 19.44C840.311 17.92 838.271 17.16 835.871 17.16H818.831V37.8Z" fill="#2137FF" fill-opacity="0.1"/>
<path d="M897.305 90C892.745 90 888.865 89.32 885.665 87.96C882.545 86.52 880.185 84.28 878.585 81.24C877.065 78.12 876.305 74.04 876.305 69V1.19999H894.065V66.12C894.065 68.04 894.385 69.6 895.025 70.8C895.745 72 896.705 72.84 897.905 73.32C899.105 73.72 900.465 73.92 901.985 73.92H930.065V90H897.305Z" fill="#2137FF" fill-opacity="0.1"/>
<path d="M940.524 90V1.19999H958.284V90H940.524Z" fill="#2137FF" fill-opacity="0.1"/>
<path d="M1000.45 90.72C998.128 90.72 995.728 90.64 993.248 90.48C990.848 90.4 988.368 90.24 985.808 90C983.328 89.68 980.968 89.36 978.728 89.04C976.488 88.64 974.448 88.2 972.608 87.72V73.68C975.008 73.92 977.728 74.12 980.768 74.28C983.808 74.44 986.968 74.56 990.248 74.64C993.528 74.72 996.648 74.76 999.608 74.76C1002.65 74.76 1005.25 74.52 1007.41 74.04C1009.65 73.48 1011.37 72.56 1012.57 71.28C1013.77 69.92 1014.37 68.08 1014.37 65.76V62.52C1014.37 59.88 1013.57 57.88 1011.97 56.52C1010.45 55.08 1008.25 54.36 1005.37 54.36H997.808C989.328 54.36 982.808 52.52 978.248 48.84C973.768 45.08 971.528 38.72 971.528 29.76V25.44C971.528 16.8 974.008 10.48 978.968 6.47999C983.928 2.47998 991.008 0.479984 1000.21 0.479984C1003.49 0.479984 1006.73 0.639984 1009.93 0.959985C1013.21 1.27999 1016.33 1.67999 1019.29 2.15998C1022.33 2.55998 1024.93 2.99998 1027.09 3.47999V17.52C1023.41 17.28 1019.29 17.04 1014.73 16.8C1010.25 16.56 1006.09 16.44 1002.25 16.44C999.528 16.44 997.088 16.72 994.928 17.28C992.848 17.76 991.248 18.72 990.128 20.16C989.008 21.6 988.448 23.64 988.448 26.28V28.68C988.448 31.8 989.328 34.04 991.088 35.4C992.848 36.76 995.448 37.44 998.888 37.44H1007.65C1013.01 37.44 1017.41 38.44 1020.85 40.44C1024.37 42.36 1026.97 45.04 1028.65 48.48C1030.41 51.92 1031.29 55.84 1031.29 60.24V65.28C1031.29 72.24 1029.97 77.56 1027.33 81.24C1024.77 84.92 1021.17 87.44 1016.53 88.8C1011.97 90.08 1006.61 90.72 1000.45 90.72Z" fill="#2137FF" fill-opacity="0.1"/>
<path d="M1044.35 90V1.19999H1062.11V38.16H1095.59V1.19999H1113.47V90H1095.59V54.12H1062.11V90H1044.35Z" fill="#2137FF" fill-opacity="0.1"/>
<path d="M1128.73 90V1.19999H1146.49V90H1128.73Z" fill="#2137FF" fill-opacity="0.1"/>
<path d="M1162.49 90V1.19999H1176.77L1213.97 59.76V1.19999H1231.73V90H1217.45L1180.37 31.44V90H1162.49Z" fill="#2137FF" fill-opacity="0.1"/>
<path d="M1271.58 90.6C1265.98 90.6 1261.38 89.56 1257.78 87.48C1254.26 85.32 1251.5 82.28 1249.5 78.36C1247.5 74.36 1246.1 69.6 1245.3 64.08C1244.5 58.56 1244.1 52.4 1244.1 45.6C1244.1 38.48 1244.54 32.12 1245.42 26.52C1246.38 20.92 1248.02 16.2 1250.34 12.36C1252.74 8.43999 1256.06 5.47999 1260.3 3.47999C1264.62 1.39999 1270.14 0.359985 1276.86 0.359985C1280.94 0.359985 1284.66 0.519986 1288.02 0.839986C1291.46 1.15999 1294.7 1.63999 1297.74 2.27999C1300.78 2.83999 1303.82 3.51999 1306.86 4.31998V18C1305.18 17.76 1302.94 17.52 1300.14 17.28C1297.34 17.04 1294.22 16.84 1290.78 16.68C1287.34 16.44 1283.78 16.32 1280.1 16.32C1275.06 16.32 1271.22 17.24 1268.58 19.08C1266.02 20.84 1264.26 23.88 1263.3 28.2C1262.34 32.44 1261.86 38.28 1261.86 45.72C1261.86 51.48 1262.1 56.2 1262.58 59.88C1263.14 63.56 1264.02 66.48 1265.22 68.64C1266.42 70.72 1267.98 72.2 1269.9 73.08C1271.9 73.88 1274.34 74.28 1277.22 74.28C1280.5 74.28 1283.62 74 1286.58 73.44C1289.62 72.88 1292.06 72.32 1293.9 71.76V54.48H1277.94V40.44C1279.62 40.2 1281.62 40 1283.94 39.84C1286.26 39.68 1288.66 39.56 1291.14 39.48C1293.7 39.32 1296.14 39.24 1298.46 39.24C1301.02 39.24 1303.3 39.28 1305.3 39.36C1307.38 39.36 1309.26 39.44 1310.94 39.6V90H1297.62L1295.22 84C1292.9 85.36 1289.62 86.8 1285.38 88.32C1281.14 89.84 1276.54 90.6 1271.58 90.6Z" fill="#2137FF" fill-opacity="0.1"/>
<path d="M1357.24 90V21.48C1357.24 17.56 1357.84 14.28 1359.04 11.64C1360.24 8.99998 1361.84 6.91998 1363.84 5.39998C1365.84 3.87999 1368.04 2.79998 1370.44 2.15998C1372.84 1.51999 1375.2 1.19999 1377.52 1.19999C1380.4 1.19999 1383.96 1.23999 1388.2 1.31999C1392.52 1.31999 1397.08 1.43999 1401.88 1.67998C1406.76 1.91998 1411.44 2.27998 1415.92 2.75998V17.64H1382.44C1379.96 17.64 1378.08 18.32 1376.8 19.68C1375.6 20.96 1375 22.68 1375 24.84V39.96L1410.16 40.92V54.96L1375 55.92V90H1357.24Z" fill="#2137FF" fill-opacity="0.1"/>
<path d="M1447.63 90.6C1445.71 90.6 1443.51 90.4 1441.03 90C1438.55 89.68 1436.15 88.88 1433.83 87.6C1431.59 86.32 1429.71 84.4 1428.19 81.84C1426.75 79.2 1426.03 75.6 1426.03 71.04V21.48C1426.03 17.56 1426.63 14.28 1427.83 11.64C1429.03 8.99998 1430.63 6.91998 1432.63 5.39998C1434.63 3.87999 1436.83 2.79998 1439.23 2.15998C1441.63 1.51999 1443.99 1.19999 1446.31 1.19999C1452.31 1.19999 1457.59 1.27999 1462.15 1.43999C1466.79 1.59998 1470.95 1.79998 1474.63 2.03999C1478.31 2.19999 1481.67 2.43999 1484.71 2.75998V17.64H1451.59C1449.11 17.64 1447.19 18.24 1445.83 19.44C1444.47 20.64 1443.79 22.48 1443.79 24.96V37.8L1478.95 38.76V52.8L1443.79 53.76V66C1443.79 68.08 1444.11 69.72 1444.75 70.92C1445.47 72.04 1446.39 72.84 1447.51 73.32C1448.71 73.72 1449.95 73.92 1451.23 73.92H1484.71V88.8C1481.19 89.2 1477.27 89.52 1472.95 89.76C1468.71 90 1464.39 90.2 1459.99 90.36C1455.67 90.52 1451.55 90.6 1447.63 90.6Z" fill="#2137FF" fill-opacity="0.1"/>
<path d="M1492.59 62.4V48H1529.31V62.4H1492.59Z" fill="#2137FF" fill-opacity="0.1"/>
<path d="M1539.59 90V1.19999H1577.15C1583.15 1.19999 1588.15 2.27999 1592.15 4.43998C1596.15 6.51998 1599.31 9.55999 1601.63 13.56C1604.03 17.48 1605.71 22.16 1606.67 27.6C1607.63 33.04 1608.11 39.04 1608.11 45.6C1608.11 55.6 1606.95 63.88 1604.63 70.44C1602.39 77 1598.99 81.92 1594.43 85.2C1589.87 88.4 1584.11 90 1577.15 90H1539.59ZM1557.35 74.04H1575.35C1579.03 74.04 1581.95 73 1584.11 70.92C1586.27 68.76 1587.83 65.56 1588.79 61.32C1589.83 57.08 1590.35 51.84 1590.35 45.6C1590.35 39.84 1590.03 35.12 1589.39 31.44C1588.75 27.68 1587.79 24.76 1586.51 22.68C1585.31 20.6 1583.75 19.16 1581.83 18.36C1579.99 17.56 1577.83 17.16 1575.35 17.16H1557.35V74.04Z" fill="#2137FF" fill-opacity="0.1"/>
<path d="M1642.75 90.6C1640.83 90.6 1638.63 90.4 1636.15 90C1633.67 89.68 1631.27 88.88 1628.95 87.6C1626.71 86.32 1624.83 84.4 1623.31 81.84C1621.87 79.2 1621.15 75.6 1621.15 71.04V21.48C1621.15 17.56 1621.75 14.28 1622.95 11.64C1624.15 8.99998 1625.75 6.91998 1627.75 5.39998C1629.75 3.87999 1631.95 2.79998 1634.35 2.15998C1636.75 1.51999 1639.11 1.19999 1641.43 1.19999C1647.43 1.19999 1652.71 1.27999 1657.27 1.43999C1661.91 1.59998 1666.07 1.79998 1669.75 2.03999C1673.43 2.19999 1676.79 2.43999 1679.83 2.75998V17.64H1646.71C1644.23 17.64 1642.31 18.24 1640.95 19.44C1639.59 20.64 1638.91 22.48 1638.91 24.96V37.8L1674.07 38.76V52.8L1638.91 53.76V66C1638.91 68.08 1639.23 69.72 1639.87 70.92C1640.59 72.04 1641.51 72.84 1642.63 73.32C1643.83 73.72 1645.07 73.92 1646.35 73.92H1679.83V88.8C1676.31 89.2 1672.39 89.52 1668.07 89.76C1663.83 90 1659.51 90.2 1655.11 90.36C1650.79 90.52 1646.67 90.6 1642.75 90.6Z" fill="#2137FF" fill-opacity="0.1"/>
<path d="M1714.95 90L1687.11 1.19999H1705.47L1726.23 70.8L1746.99 1.19999H1765.23L1737.39 90H1714.95Z" fill="#2137FF" fill-opacity="0.1"/>
</svg>
