<svg width="257" height="81" viewBox="0 0 257 81" fill="none" xmlns="http://www.w3.org/2000/svg">
<path d="M0.68 80.96V0.319994H23.24V31.4H48.56V0.319994H71.24V80.96H48.56V47.6H23.24V80.96H0.68ZM94.3813 80.96L75.1813 0.319994H97.8613L108.421 51.08H108.901L121.741 0.319994H139.981L152.701 51.08H153.061L164.341 0.319994H184.021L164.701 80.96H142.021L130.021 31.28H129.661L117.181 80.96H94.3813ZM214.199 23.72L205.679 50.48H223.199L214.679 23.72H214.199ZM175.919 80.96L204.119 0.319994H228.239L256.199 80.96H233.159L227.759 65H201.359L196.319 80.96H175.919Z" fill="#333333" fill-opacity="0.5"/>
</svg>
