<svg viewBox="0 0 570 86" fill="none" xmlns="http://www.w3.org/2000/svg">
  <path d="M26.36 83.96V52.4L0.8 3.31999H24.68L39.08 32.72H39.44L53.6 3.31999H74.24L48.92 52.4V83.96H26.36ZM113.552 68.84C123.392 68.84 128.552 61.52 128.552 46.16V42.08C128.552 25.28 123.752 18.44 113.192 18.44C103.232 18.44 98.0722 25.76 98.0722 41V45.08C98.0722 62.48 103.232 68.84 113.552 68.84ZM113.072 85.28C91.4722 85.28 74.4322 73.4 74.4322 45.2V42.56C74.4322 13.88 93.0322 2 113.672 2C135.152 2 152.312 13.88 152.312 42.08V44.72C152.312 73.4 133.712 85.28 113.072 85.28ZM192.831 85.28C169.551 85.28 157.791 75.2 157.791 55.16V3.43999H180.471V54.32C180.471 64.64 184.671 68.84 193.551 68.84C202.431 68.84 206.151 64.64 206.151 54.2V3.43999H226.311V55.04C226.311 75.08 215.751 85.28 192.831 85.28ZM261.285 85.4C242.445 85.4 231.405 77 231.405 61.52C231.405 49.52 238.845 42.32 249.285 37.4C244.605 31.52 242.445 26.24 242.445 20.48C242.445 7.04 252.885 0.439996 265.485 0.439996C278.205 0.439996 287.085 7.4 287.085 18.56C287.085 29.6 278.925 35.48 268.725 40.28L285.045 59.72C287.085 55.28 288.525 49.76 289.245 43.76H301.245C300.285 53.24 297.285 61.88 292.365 68.84L305.325 84.08H288.285L283.245 78.2C277.245 82.64 269.685 85.4 261.285 85.4ZM262.245 74.84C267.885 74.84 272.685 73.16 276.645 70.28L255.525 45.08C249.885 48.44 245.685 52.52 245.685 59.84C245.685 68.96 251.085 74.84 262.245 74.84ZM256.485 19.64C256.485 23.96 258.405 27.68 261.885 31.88L262.845 33.32C268.605 30.08 274.005 25.88 274.005 19.16C274.005 13.64 270.405 10.16 265.605 10.16C260.325 10.16 256.485 13.16 256.485 19.64Z" fill="#8FADFC"/>
  <path d="M314.461 83.96V3.31999H337.021V34.4H362.341V3.31999H385.021V83.96H362.341V50.6H337.021V83.96H314.461ZM408.163 83.96L388.963 3.31999H411.643L422.203 54.08H422.683L435.523 3.31999H453.763L466.483 54.08H466.843L478.123 3.31999H497.803L478.483 83.96H455.803L443.803 34.28H443.443L430.963 83.96H408.163ZM527.981 26.72L519.461 53.48H536.981L528.461 26.72H527.981ZM489.701 83.96L517.901 3.31999H542.021L569.981 83.96H546.941L541.541 68H515.141L510.101 83.96H489.701Z" fill="#2137FF"/>
</svg>
