<svg width="33" height="32" viewBox="0 0 33 32" fill="none" xmlns="http://www.w3.org/2000/svg">
<rect x="0.998047" width="32" height="32" fill="#2137FF"/>
<path d="M6.28269 25.2576C5.92304 25.2414 5.78007 25.3226 5.35748 25.2576C4.93489 25.2008 4.5078 25.0871 4.07622 24.9166L4.93939 22.7242C5.25408 22.7972 5.53281 22.8419 5.77558 22.8581C6.02733 22.8825 6.27909 22.8947 6.53085 22.8947C7.16024 22.8947 7.67724 22.7241 8.08185 22.3831C8.48646 22.0421 8.84162 21.5386 9.14733 20.8728C9.46202 20.215 9.7947 19.403 10.1454 18.4367L14.1375 6.7438H17.9948L13.0585 19.0701C12.609 20.1176 12.1864 21.0352 11.7908 21.8228C11.3952 22.6105 10.9636 23.2682 10.496 23.796C10.0375 24.3238 9.49349 24.7176 8.8641 24.9775C8.23471 25.2454 7.2088 25.2576 6.28269 25.2576ZM8.52692 19.0214L3.50977 6.7438H7.55586L9.44404 12.4928C9.6868 13.1993 9.78571 13.9707 9.74075 14.8071C9.69579 15.6434 9.55643 16.4392 9.32266 17.1944C9.09787 17.9495 8.83263 18.5585 8.52692 19.0214Z" fill="white"/>
<path d="M17.9946 25.2089L17.9948 6.7438H21.744V25.2089H17.9946ZM26.7073 25.2089V16.2687C26.7073 15.8627 26.6084 15.5297 26.4105 15.2699C26.2217 15.0101 25.925 14.8801 25.5204 14.8801C25.3586 14.8801 25.2237 14.8964 25.1158 14.9289C25.0079 14.9613 24.837 14.9857 24.6033 15.0019C24.1986 15.0263 23.848 14.872 23.5513 14.5391C23.2546 14.198 22.9758 13.8083 22.7151 13.3698C23.5962 12.9151 24.356 12.6227 24.9944 12.4928C25.6418 12.3629 26.2127 12.2979 26.7073 12.2979C27.3277 12.2979 27.9256 12.44 28.501 12.7242C29.0765 13.0085 29.544 13.4429 29.9037 14.0275C30.2723 14.604 30.4566 15.3349 30.4566 16.2199V25.2089H26.7073Z" fill="white"/>
</svg>
